<svg width="60" height="60" viewBox="0 0 60 60" fill="none" xmlns="http://www.w3.org/2000/svg">
<circle cx="30" cy="30" r="30" fill="black"/>
<g clip-path="url(#clip0_2_39)">
<path fill-rule="evenodd" clip-rule="evenodd" d="M29.8478 22.4899C29.5235 16.8328 24.6792 12.4387 19.0145 12.7355C13.3498 13.0324 8.99134 17.9089 9.2601 23.5689L11.8336 23.434C12.6859 23.3893 13.4139 24.0448 13.4586 24.8971L13.8362 32.1028C13.8809 32.9552 13.2254 33.6832 12.373 33.7278L9.28488 33.8897C8.43255 33.9344 7.70455 33.2789 7.65989 32.4265L7.20133 23.6768C6.87301 16.8803 12.1065 11.0331 18.9066 10.6768C25.7067 10.3204 31.5227 15.5885 31.9066 22.382L32.3651 31.1318C32.4098 31.9841 31.7543 32.7121 30.902 32.7568L27.8138 32.9186C26.9615 32.9633 26.2335 32.3078 26.1888 31.4555L25.8112 24.2498C25.7665 23.3974 26.422 22.6694 27.2743 22.6248L29.8478 22.4899Z" fill="#FF9900"/>
</g>
<path d="M28.8959 42.2C28.5626 41.4 28.1126 40.3833 27.5459 39.15C27.0126 37.9167 26.4292 36.5833 25.7959 35.15C25.1626 33.7167 24.4792 32.25 23.7459 30.75C23.0459 29.2167 22.3792 27.7833 21.7459 26.45C21.1126 25.0833 20.5126 23.8667 19.9459 22.8C19.4126 21.7333 18.9792 20.9167 18.6459 20.35C18.2792 24.2833 17.9792 28.55 17.7459 33.15C17.5126 37.7167 17.3126 42.3333 17.1459 47H12.3959C12.5292 44 12.6792 40.9833 12.8459 37.95C13.0126 34.8833 13.1959 31.8833 13.3959 28.95C13.6292 25.9833 13.8626 23.1 14.0959 20.3C14.3626 17.5 14.6459 14.85 14.9459 12.35H19.1959C20.0959 13.8167 21.0626 15.55 22.0959 17.55C23.1292 19.55 24.1626 21.65 25.1959 23.85C26.2292 26.0167 27.2292 28.2 28.1959 30.4C29.1626 32.5667 30.0459 34.55 30.8459 36.35C31.6459 34.55 32.5292 32.5667 33.4959 30.4C34.4626 28.2 35.4626 26.0167 36.4959 23.85C37.5292 21.65 38.5626 19.55 39.5959 17.55C40.6292 15.55 41.5959 13.8167 42.4959 12.35H46.7459C47.8792 23.5167 48.7292 35.0667 49.2959 47H44.5459C44.3792 42.3333 44.1792 37.7167 43.9459 33.15C43.7126 28.55 43.4126 24.2833 43.0459 20.35C42.7126 20.9167 42.2626 21.7333 41.6959 22.8C41.1626 23.8667 40.5792 25.0833 39.9459 26.45C39.3126 27.7833 38.6292 29.2167 37.8959 30.75C37.1959 32.25 36.5292 33.7167 35.8959 35.15C35.2626 36.5833 34.6626 37.9167 34.0959 39.15C33.5626 40.3833 33.1292 41.4 32.7959 42.2H28.8959Z" fill="#F1F1F1"/>
<g clip-path="url(#clip1_2_39)">
<mask id="mask0_2_39" style="mask-type:alpha" maskUnits="userSpaceOnUse" x="3" y="9" width="32" height="13">
<rect x="3" y="9" width="32" height="13" fill="#D9D9D9"/>
</mask>
<g mask="url(#mask0_2_39)">
<path fill-rule="evenodd" clip-rule="evenodd" d="M29.8478 22.4899C29.5235 16.8328 24.6792 12.4387 19.0145 12.7355C13.3498 13.0324 8.99134 17.9089 9.2601 23.5689L11.8336 23.434C12.6859 23.3893 13.4139 24.0448 13.4586 24.8971L13.8362 32.1028C13.8809 32.9552 13.2254 33.6832 12.373 33.7278L9.28488 33.8897C8.43255 33.9344 7.70455 33.2789 7.65989 32.4265L7.20133 23.6768C6.87301 16.8803 12.1065 11.0331 18.9066 10.6768C25.7067 10.3204 31.5227 15.5885 31.9066 22.382L32.3651 31.1318C32.4098 31.9841 31.7543 32.7121 30.902 32.7568L27.8138 32.9186C26.9615 32.9633 26.2335 32.3078 26.1888 31.4555L25.8112 24.2498C25.7665 23.3974 26.422 22.6694 27.2743 22.6248L29.8478 22.4899Z" fill="#FF9900"/>
</g>
</g>
<defs>
<clipPath id="clip0_2_39">
<rect width="24.7392" height="24.7392" fill="white" transform="translate(6.5 10.2947) rotate(-3)"/>
</clipPath>
<clipPath id="clip1_2_39">
<rect width="24.7392" height="24.7392" fill="white" transform="translate(6.5 10.2947) rotate(-3)"/>
</clipPath>
</defs>
</svg>
