<svg height="100%" width="100%" viewBox="0 0 202 57" fill="none" xmlns="http://www.w3.org/2000/svg">
<g clip-path="url(#clip0_2_39)">
<path fill-rule="evenodd" clip-rule="evenodd" d="M23.8478 22.4899C23.5235 16.8328 18.6792 12.4387 13.0145 12.7355C7.34977 13.0324 2.99134 17.9089 3.2601 23.5689L5.83356 23.434C6.68589 23.3893 7.41389 24.0448 7.45856 24.8971L7.8362 32.1028C7.88087 32.9552 7.22537 33.6832 6.37304 33.7278L3.28488 33.8897C2.43255 33.9344 1.70455 33.2789 1.65989 32.4265L1.20133 23.6768C0.873013 16.8803 6.10646 11.0331 12.9066 10.6768C19.7067 10.3204 25.5227 15.5885 25.9066 22.382L26.3651 31.1318C26.4098 31.9841 25.7543 32.7121 24.902 32.7568L21.8138 32.9186C20.9615 32.9633 20.2335 32.3078 20.1888 31.4555L19.8112 24.2498C19.7665 23.3974 20.422 22.6694 21.2743 22.6248L23.8478 22.4899Z" fill="#FF9900"/>
</g>
<path d="M22.85 42.2C22.5167 41.4 22.0667 40.3833 21.5 39.15C20.9667 37.9167 20.3833 36.5833 19.75 35.15C19.1167 33.7167 18.4333 32.25 17.7 30.75C17 29.2167 16.3333 27.7833 15.7 26.45C15.0667 25.0833 14.4667 23.8667 13.9 22.8C13.3667 21.7333 12.9333 20.9167 12.6 20.35C12.2333 24.2833 11.9333 28.55 11.7 33.15C11.4667 37.7167 11.2667 42.3333 11.1 47H6.35C6.48333 44 6.63333 40.9833 6.8 37.95C6.96667 34.8833 7.15 31.8833 7.35 28.95C7.58333 25.9833 7.81667 23.1 8.05 20.3C8.31667 17.5 8.6 14.85 8.9 12.35H13.15C14.05 13.8167 15.0167 15.55 16.05 17.55C17.0833 19.55 18.1167 21.65 19.15 23.85C20.1833 26.0167 21.1833 28.2 22.15 30.4C23.1167 32.5667 24 34.55 24.8 36.35C25.6 34.55 26.4833 32.5667 27.45 30.4C28.4167 28.2 29.4167 26.0167 30.45 23.85C31.4833 21.65 32.5167 19.55 33.55 17.55C34.5833 15.55 35.55 13.8167 36.45 12.35H40.7C41.8333 23.5167 42.6833 35.0667 43.25 47H38.5C38.3333 42.3333 38.1333 37.7167 37.9 33.15C37.6667 28.55 37.3667 24.2833 37 20.35C36.6667 20.9167 36.2167 21.7333 35.65 22.8C35.1167 23.8667 34.5333 25.0833 33.9 26.45C33.2667 27.7833 32.5833 29.2167 31.85 30.75C31.15 32.25 30.4833 33.7167 29.85 35.15C29.2167 36.5833 28.6167 37.9167 28.05 39.15C27.5167 40.3833 27.0833 41.4 26.75 42.2H22.85ZM71.2547 46.25C70.188 46.5167 68.7714 46.8 67.0047 47.1C65.2714 47.4 63.2547 47.55 60.9547 47.55C58.9547 47.55 57.2714 47.2667 55.9047 46.7C54.538 46.1 53.438 45.2667 52.6047 44.2C51.7714 43.1333 51.1714 41.8833 50.8047 40.45C50.438 38.9833 50.2547 37.3667 50.2547 35.6V21H54.9047V34.6C54.9047 37.7667 55.4047 40.0333 56.4047 41.4C57.4047 42.7667 59.088 43.45 61.4547 43.45C61.9547 43.45 62.4714 43.4333 63.0047 43.4C63.538 43.3667 64.038 43.3333 64.5047 43.3C64.9714 43.2333 65.388 43.1833 65.7547 43.15C66.1547 43.0833 66.438 43.0167 66.6047 42.95V21H71.2547V46.25ZM85.3156 43.65C87.2156 43.65 88.6156 43.4 89.5156 42.9C90.449 42.4 90.9156 41.6 90.9156 40.5C90.9156 39.3667 90.4656 38.4667 89.5656 37.8C88.6656 37.1333 87.1823 36.3833 85.1156 35.55C84.1156 35.15 83.149 34.75 82.2156 34.35C81.3156 33.9167 80.5323 33.4167 79.8656 32.85C79.199 32.2833 78.6656 31.6 78.2656 30.8C77.8656 30 77.6656 29.0167 77.6656 27.85C77.6656 25.55 78.5156 23.7333 80.2156 22.4C81.9156 21.0333 84.2323 20.35 87.1656 20.35C87.899 20.35 88.6323 20.4 89.3656 20.5C90.099 20.5667 90.7823 20.6667 91.4156 20.8C92.049 20.9 92.599 21.0167 93.0656 21.15C93.5656 21.2833 93.949 21.4 94.2156 21.5L93.3656 25.5C92.8656 25.2333 92.0823 24.9667 91.0156 24.7C89.949 24.4 88.6656 24.25 87.1656 24.25C85.8656 24.25 84.7323 24.5167 83.7656 25.05C82.799 25.55 82.3156 26.35 82.3156 27.45C82.3156 28.0167 82.4156 28.5167 82.6156 28.95C82.849 29.3833 83.1823 29.7833 83.6156 30.15C84.0823 30.4833 84.649 30.8 85.3156 31.1C85.9823 31.4 86.7823 31.7167 87.7156 32.05C88.949 32.5167 90.049 32.9833 91.0156 33.45C91.9823 33.8833 92.799 34.4 93.4656 35C94.1656 35.6 94.699 36.3333 95.0656 37.2C95.4323 38.0333 95.6156 39.0667 95.6156 40.3C95.6156 42.7 94.7156 44.5167 92.9156 45.75C91.149 46.9833 88.6156 47.6 85.3156 47.6C83.0156 47.6 81.2156 47.4 79.9156 47C78.6156 46.6333 77.7323 46.35 77.2656 46.15L78.1156 42.15C78.649 42.35 79.499 42.65 80.6656 43.05C81.8323 43.45 83.3823 43.65 85.3156 43.65ZM106.23 47H101.58V21H106.23V47ZM103.88 16.3C103.047 16.3 102.33 16.0333 101.73 15.5C101.163 14.9333 100.88 14.1833 100.88 13.25C100.88 12.3167 101.163 11.5833 101.73 11.05C102.33 10.4833 103.047 10.2 103.88 10.2C104.713 10.2 105.413 10.4833 105.98 11.05C106.58 11.5833 106.88 12.3167 106.88 13.25C106.88 14.1833 106.58 14.9333 105.98 15.5C105.413 16.0333 104.713 16.3 103.88 16.3ZM125.527 47.6C123.427 47.6 121.577 47.2667 119.977 46.6C118.41 45.9333 117.077 45 115.977 43.8C114.91 42.6 114.11 41.1833 113.577 39.55C113.043 37.8833 112.777 36.05 112.777 34.05C112.777 32.05 113.06 30.2167 113.627 28.55C114.227 26.8833 115.06 25.45 116.127 24.25C117.193 23.0167 118.493 22.0667 120.027 21.4C121.593 20.7 123.327 20.35 125.227 20.35C126.393 20.35 127.56 20.45 128.727 20.65C129.893 20.85 131.01 21.1667 132.077 21.6L131.027 25.55C130.327 25.2167 129.51 24.95 128.577 24.75C127.677 24.55 126.71 24.45 125.677 24.45C123.077 24.45 121.077 25.2667 119.677 26.9C118.31 28.5333 117.627 30.9167 117.627 34.05C117.627 35.45 117.777 36.7333 118.077 37.9C118.41 39.0667 118.91 40.0667 119.577 40.9C120.277 41.7333 121.16 42.3833 122.227 42.85C123.293 43.2833 124.593 43.5 126.127 43.5C127.36 43.5 128.477 43.3833 129.477 43.15C130.477 42.9167 131.26 42.6667 131.827 42.4L132.477 46.3C132.21 46.4667 131.827 46.6333 131.327 46.8C130.827 46.9333 130.26 47.05 129.627 47.15C128.993 47.2833 128.31 47.3833 127.577 47.45C126.877 47.55 126.193 47.6 125.527 47.6ZM146.269 43.65C147.369 43.65 148.335 43.6333 149.169 43.6C150.035 43.5333 150.752 43.4333 151.319 43.3V35.55C150.985 35.3833 150.435 35.25 149.669 35.15C148.935 35.0167 148.035 34.95 146.969 34.95C146.269 34.95 145.519 35 144.719 35.1C143.952 35.2 143.235 35.4167 142.569 35.75C141.935 36.05 141.402 36.4833 140.969 37.05C140.535 37.5833 140.319 38.3 140.319 39.2C140.319 40.8667 140.852 42.0333 141.919 42.7C142.985 43.3333 144.435 43.65 146.269 43.65ZM145.869 20.35C147.735 20.35 149.302 20.6 150.569 21.1C151.869 21.5667 152.902 22.25 153.669 23.15C154.469 24.0167 155.035 25.0667 155.369 26.3C155.702 27.5 155.869 28.8333 155.869 30.3V46.55C155.469 46.6167 154.902 46.7167 154.169 46.85C153.469 46.95 152.669 47.05 151.769 47.15C150.869 47.25 149.885 47.3333 148.819 47.4C147.785 47.5 146.752 47.55 145.719 47.55C144.252 47.55 142.902 47.4 141.669 47.1C140.435 46.8 139.369 46.3333 138.469 45.7C137.569 45.0333 136.869 44.1667 136.369 43.1C135.869 42.0333 135.619 40.75 135.619 39.25C135.619 37.8167 135.902 36.5833 136.469 35.55C137.069 34.5167 137.869 33.6833 138.869 33.05C139.869 32.4167 141.035 31.95 142.369 31.65C143.702 31.35 145.102 31.2 146.569 31.2C147.035 31.2 147.519 31.2333 148.019 31.3C148.519 31.3333 148.985 31.4 149.419 31.5C149.885 31.5667 150.285 31.6333 150.619 31.7C150.952 31.7667 151.185 31.8167 151.319 31.85V30.55C151.319 29.7833 151.235 29.0333 151.069 28.3C150.902 27.5333 150.602 26.8667 150.169 26.3C149.735 25.7 149.135 25.2333 148.369 24.9C147.635 24.5333 146.669 24.35 145.469 24.35C143.935 24.35 142.585 24.4667 141.419 24.7C140.285 24.9 139.435 25.1167 138.869 25.35L138.319 21.5C138.919 21.2333 139.919 20.9833 141.319 20.75C142.719 20.4833 144.235 20.35 145.869 20.35ZM171.392 47.5C168.525 47.4333 166.492 46.8167 165.292 45.65C164.092 44.4833 163.492 42.6667 163.492 40.2V9L168.142 8.2V39.45C168.142 40.2167 168.208 40.85 168.342 41.35C168.475 41.85 168.692 42.25 168.992 42.55C169.292 42.85 169.692 43.0833 170.192 43.25C170.692 43.3833 171.308 43.5 172.042 43.6L171.392 47.5ZM175.814 34.05C175.814 31.75 176.147 29.75 176.814 28.05C177.48 26.3167 178.364 24.8833 179.464 23.75C180.564 22.6167 181.83 21.7667 183.264 21.2C184.697 20.6333 186.164 20.35 187.664 20.35C191.164 20.35 193.847 21.45 195.714 23.65C197.58 25.8167 198.514 29.1333 198.514 33.6C198.514 33.8 198.514 34.0667 198.514 34.4C198.514 34.7 198.497 34.9833 198.464 35.25H180.664C180.864 37.95 181.647 40 183.014 41.4C184.38 42.8 186.514 43.5 189.414 43.5C191.047 43.5 192.414 43.3667 193.514 43.1C194.647 42.8 195.497 42.5167 196.064 42.25L196.714 46.15C196.147 46.45 195.147 46.7667 193.714 47.1C192.314 47.4333 190.714 47.6 188.914 47.6C186.647 47.6 184.68 47.2667 183.014 46.6C181.38 45.9 180.03 44.95 178.964 43.75C177.897 42.55 177.097 41.1333 176.564 39.5C176.064 37.8333 175.814 36.0167 175.814 34.05ZM193.664 31.5C193.697 29.4 193.164 27.6833 192.064 26.35C190.997 24.9833 189.514 24.3 187.614 24.3C186.547 24.3 185.597 24.5167 184.764 24.95C183.964 25.35 183.28 25.8833 182.714 26.55C182.147 27.2167 181.697 27.9833 181.364 28.85C181.064 29.7167 180.864 30.6 180.764 31.5H193.664Z" fill="#F1F1F1"/>
<g clip-path="url(#clip1_2_39)">
<mask id="mask0_2_39" style="mask-type:alpha" maskUnits="userSpaceOnUse" x="-3" y="9" width="32" height="13">
<rect x="-3" y="9" width="32" height="13" fill="#D9D9D9"/>
</mask>
<g mask="url(#mask0_2_39)">
<path fill-rule="evenodd" clip-rule="evenodd" d="M23.8478 22.4899C23.5235 16.8328 18.6792 12.4387 13.0145 12.7355C7.34977 13.0324 2.99134 17.9089 3.2601 23.5689L5.83356 23.434C6.68589 23.3893 7.41389 24.0448 7.45856 24.8971L7.8362 32.1028C7.88087 32.9552 7.22537 33.6832 6.37304 33.7278L3.28488 33.8897C2.43255 33.9344 1.70455 33.2789 1.65989 32.4265L1.20133 23.6768C0.873013 16.8803 6.10646 11.0331 12.9066 10.6768C19.7067 10.3204 25.5227 15.5885 25.9066 22.382L26.3651 31.1318C26.4098 31.9841 25.7543 32.7121 24.902 32.7568L21.8138 32.9186C20.9615 32.9633 20.2335 32.3078 20.1888 31.4555L19.8112 24.2498C19.7665 23.3974 20.422 22.6694 21.2743 22.6248L23.8478 22.4899Z" fill="#FF9900"/>
</g>
</g>
<defs>
<clipPath id="clip0_2_39">
<rect width="24.7392" height="24.7392" fill="white" transform="translate(0.5 10.2947) rotate(-3)"/>
</clipPath>
<clipPath id="clip1_2_39">
<rect width="24.7392" height="24.7392" fill="white" transform="translate(0.5 10.2947) rotate(-3)"/>
</clipPath>
</defs>
</svg>
